<mxfile host="app.diagrams.net" modified="2023-09-18T08:51:07.900Z" agent="Mozilla/5.0 (Windows NT 10.0; Win64; x64) AppleWebKit/537.36 (KHTML, like Gecko) Chrome/117.0.0.0 Safari/537.36" etag="XMMX8QnkwaDwLb6xC5hk" version="21.7.5" type="github">
  <diagram id="yPxyJZ8AM_hMuL3Unpa9" name="gitflow">
    <mxGraphModel dx="497" dy="1030" grid="1" gridSize="10" guides="1" tooltips="1" connect="1" arrows="1" fold="1" page="0" pageScale="1" pageWidth="850" pageHeight="1100" math="0" shadow="0">
      <root>
        <mxCell id="0" />
        <mxCell id="1" parent="0" />
        <mxCell id="7" value="Master" style="text;html=1;strokeColor=#82b366;fillColor=#d5e8d4;align=center;verticalAlign=middle;whiteSpace=wrap;rounded=0;direction=east;" parent="1" vertex="1">
          <mxGeometry x="40" width="88" height="21" as="geometry" />
        </mxCell>
        <mxCell id="20" value="Hotfix" style="text;html=1;strokeColor=#b85450;fillColor=#f8cecc;align=center;verticalAlign=middle;whiteSpace=wrap;rounded=0;direction=east;" parent="1" vertex="1">
          <mxGeometry x="39" y="58" width="88" height="21" as="geometry" />
        </mxCell>
        <mxCell id="42" value="Release Branches" style="text;html=1;strokeColor=#d79b00;fillColor=#ffe6cc;align=center;verticalAlign=middle;whiteSpace=wrap;rounded=0;fontSize=12;direction=east;" parent="1" vertex="1">
          <mxGeometry x="40" y="104" width="88" height="31" as="geometry" />
        </mxCell>
        <mxCell id="85" value="Feature team 1" style="text;html=1;strokeColor=#9673a6;fillColor=#e1d5e7;align=center;verticalAlign=middle;whiteSpace=wrap;rounded=0;direction=east;" parent="1" vertex="1">
          <mxGeometry x="39" y="280" width="88" height="21" as="geometry" />
        </mxCell>
        <mxCell id="FDRWWzNf12pBNZbJ33nD-177" value="Time" style="text;html=1;strokeColor=#6c8ebf;fillColor=#dae8fc;align=center;verticalAlign=middle;whiteSpace=wrap;rounded=0;direction=east;" parent="1" vertex="1">
          <mxGeometry x="40" y="319" width="88" height="21" as="geometry" />
        </mxCell>
        <mxCell id="FDRWWzNf12pBNZbJ33nD-182" value="" style="ellipse;whiteSpace=wrap;html=1;aspect=fixed;fontSize=12;fillColor=#e1d5e7;strokeColor=#9673a6;direction=west;flipH=0;" parent="1" vertex="1">
          <mxGeometry x="370" y="281" width="17" height="19" as="geometry" />
        </mxCell>
        <mxCell id="FDRWWzNf12pBNZbJ33nD-183" value="" style="ellipse;whiteSpace=wrap;html=1;aspect=fixed;fontSize=12;fillColor=#e1d5e7;strokeColor=#9673a6;direction=west;flipH=0;" parent="1" vertex="1">
          <mxGeometry x="420" y="281" width="17" height="19" as="geometry" />
        </mxCell>
        <mxCell id="FDRWWzNf12pBNZbJ33nD-185" value="" style="ellipse;whiteSpace=wrap;html=1;aspect=fixed;fontSize=12;fillColor=#e1d5e7;strokeColor=#9673a6;direction=west;flipH=0;" parent="1" vertex="1">
          <mxGeometry x="640" y="281" width="17" height="19" as="geometry" />
        </mxCell>
        <mxCell id="FDRWWzNf12pBNZbJ33nD-186" value="" style="ellipse;whiteSpace=wrap;html=1;aspect=fixed;fontSize=12;fillColor=#e1d5e7;strokeColor=#9673a6;direction=west;flipH=0;" parent="1" vertex="1">
          <mxGeometry x="860" y="281" width="17" height="19" as="geometry" />
        </mxCell>
        <mxCell id="FDRWWzNf12pBNZbJ33nD-331" value="" style="ellipse;whiteSpace=wrap;html=1;aspect=fixed;fontSize=12;fillColor=#ffe6cc;strokeColor=#d79b00;direction=west;flipH=0;" parent="1" vertex="1">
          <mxGeometry x="651" y="110" width="17" height="19" as="geometry" />
        </mxCell>
        <mxCell id="FDRWWzNf12pBNZbJ33nD-332" value="" style="ellipse;whiteSpace=wrap;html=1;aspect=fixed;fontSize=12;fillColor=#ffe6cc;strokeColor=#d79b00;direction=west;flipH=0;" parent="1" vertex="1">
          <mxGeometry x="566" y="110" width="17" height="19" as="geometry" />
        </mxCell>
        <mxCell id="FDRWWzNf12pBNZbJ33nD-333" value="" style="ellipse;whiteSpace=wrap;html=1;aspect=fixed;fontSize=12;fillColor=#ffe6cc;strokeColor=#d79b00;direction=west;flipH=0;" parent="1" vertex="1">
          <mxGeometry x="711" y="110" width="17" height="19" as="geometry" />
        </mxCell>
        <mxCell id="FDRWWzNf12pBNZbJ33nD-334" value="" style="ellipse;whiteSpace=wrap;html=1;aspect=fixed;fontSize=12;fillColor=#ffe6cc;strokeColor=#d79b00;direction=west;flipH=0;" parent="1" vertex="1">
          <mxGeometry x="761" y="110" width="17" height="19" as="geometry" />
        </mxCell>
        <mxCell id="FDRWWzNf12pBNZbJ33nD-335" value="" style="ellipse;whiteSpace=wrap;html=1;aspect=fixed;fontSize=12;fillColor=#ffe6cc;strokeColor=#d79b00;direction=west;flipH=0;" parent="1" vertex="1">
          <mxGeometry x="921" y="110" width="17" height="19" as="geometry" />
        </mxCell>
        <mxCell id="FDRWWzNf12pBNZbJ33nD-349" value="" style="ellipse;whiteSpace=wrap;html=1;aspect=fixed;fontSize=12;fillColor=#f8cecc;strokeColor=#b85450;direction=west;flipH=0;" parent="1" vertex="1">
          <mxGeometry x="430" y="59" width="17" height="19" as="geometry" />
        </mxCell>
        <mxCell id="FDRWWzNf12pBNZbJ33nD-355" value="" style="edgeStyle=orthogonalEdgeStyle;rounded=0;orthogonalLoop=1;jettySize=auto;html=1;" parent="1" source="7" target="FDRWWzNf12pBNZbJ33nD-354" edge="1">
          <mxGeometry relative="1" as="geometry">
            <mxPoint x="18.33328247070324" y="10.000000000000114" as="targetPoint" />
            <mxPoint x="890" y="10" as="sourcePoint" />
          </mxGeometry>
        </mxCell>
        <mxCell id="FDRWWzNf12pBNZbJ33nD-354" value="" style="ellipse;whiteSpace=wrap;html=1;aspect=fixed;fontSize=12;fillColor=#d5e8d4;strokeColor=#82b366;direction=east;" parent="1" vertex="1">
          <mxGeometry x="171" y="1" width="17" height="19" as="geometry" />
        </mxCell>
        <mxCell id="FDRWWzNf12pBNZbJ33nD-357" value="" style="edgeStyle=orthogonalEdgeStyle;rounded=0;orthogonalLoop=1;jettySize=auto;html=1;" parent="1" source="FDRWWzNf12pBNZbJ33nD-354" target="FDRWWzNf12pBNZbJ33nD-356" edge="1">
          <mxGeometry relative="1" as="geometry">
            <mxPoint x="18.33328247070324" y="11.000000000000114" as="targetPoint" />
            <mxPoint x="640" y="11" as="sourcePoint" />
          </mxGeometry>
        </mxCell>
        <mxCell id="FDRWWzNf12pBNZbJ33nD-356" value="" style="ellipse;whiteSpace=wrap;html=1;aspect=fixed;fontSize=12;fillColor=#d5e8d4;strokeColor=#82b366;direction=west;flipH=0;" parent="1" vertex="1">
          <mxGeometry x="451" y="1" width="17" height="19" as="geometry" />
        </mxCell>
        <mxCell id="FDRWWzNf12pBNZbJ33nD-359" value="" style="edgeStyle=orthogonalEdgeStyle;rounded=0;orthogonalLoop=1;jettySize=auto;html=1;" parent="1" source="FDRWWzNf12pBNZbJ33nD-356" target="FDRWWzNf12pBNZbJ33nD-358" edge="1">
          <mxGeometry relative="1" as="geometry">
            <mxPoint x="18.333282470703125" y="11.000000000000114" as="targetPoint" />
            <mxPoint x="470" y="11" as="sourcePoint" />
          </mxGeometry>
        </mxCell>
        <mxCell id="FDRWWzNf12pBNZbJ33nD-358" value="" style="ellipse;whiteSpace=wrap;html=1;aspect=fixed;fontSize=12;fillColor=#d5e8d4;strokeColor=#82b366;direction=west;flipH=0;" parent="1" vertex="1">
          <mxGeometry x="801" y="1" width="17" height="19" as="geometry" />
        </mxCell>
        <mxCell id="FDRWWzNf12pBNZbJ33nD-361" value="" style="edgeStyle=orthogonalEdgeStyle;rounded=0;orthogonalLoop=1;jettySize=auto;html=1;" parent="1" source="FDRWWzNf12pBNZbJ33nD-358" target="FDRWWzNf12pBNZbJ33nD-360" edge="1">
          <mxGeometry relative="1" as="geometry">
            <mxPoint x="18.333282470703125" y="11.000000000000114" as="targetPoint" />
            <mxPoint x="280" y="11" as="sourcePoint" />
          </mxGeometry>
        </mxCell>
        <mxCell id="FDRWWzNf12pBNZbJ33nD-360" value="" style="ellipse;whiteSpace=wrap;html=1;aspect=fixed;fontSize=12;fillColor=#d5e8d4;strokeColor=#82b366;direction=west;flipH=0;" parent="1" vertex="1">
          <mxGeometry x="941" y="1" width="17" height="19" as="geometry" />
        </mxCell>
        <mxCell id="zETWnQQV9wwEFKSfop4r-105" value="" style="endArrow=none;dashed=1;html=1;rounded=0;" edge="1" parent="1">
          <mxGeometry width="50" height="50" relative="1" as="geometry">
            <mxPoint x="129" y="328.88" as="sourcePoint" />
            <mxPoint x="961" y="328.88" as="targetPoint" />
          </mxGeometry>
        </mxCell>
        <mxCell id="zETWnQQV9wwEFKSfop4r-106" style="edgeStyle=orthogonalEdgeStyle;rounded=0;orthogonalLoop=1;jettySize=auto;html=1;entryX=1;entryY=0.5;entryDx=0;entryDy=0;" edge="1" parent="1">
          <mxGeometry relative="1" as="geometry">
            <mxPoint x="127" y="190.5" as="sourcePoint" />
            <mxPoint x="189.99999999999477" y="190.5" as="targetPoint" />
          </mxGeometry>
        </mxCell>
        <mxCell id="zETWnQQV9wwEFKSfop4r-107" value="Development" style="text;html=1;strokeColor=#666666;fillColor=#f5f5f5;align=center;verticalAlign=middle;whiteSpace=wrap;rounded=0;fontColor=#333333;direction=east;" vertex="1" parent="1">
          <mxGeometry x="39" y="179" width="88" height="21" as="geometry" />
        </mxCell>
        <mxCell id="zETWnQQV9wwEFKSfop4r-108" style="edgeStyle=orthogonalEdgeStyle;rounded=0;orthogonalLoop=1;jettySize=auto;html=1;entryX=1;entryY=0.5;entryDx=0;entryDy=0;" edge="1" parent="1">
          <mxGeometry relative="1" as="geometry">
            <mxPoint x="406.9999999999998" y="190.5" as="sourcePoint" />
            <mxPoint x="469.9999999999686" y="190.5" as="targetPoint" />
          </mxGeometry>
        </mxCell>
        <mxCell id="zETWnQQV9wwEFKSfop4r-109" value="" style="ellipse;whiteSpace=wrap;html=1;aspect=fixed;fontSize=12;fillColor=#f5f5f5;strokeColor=#666666;fontColor=#333333;direction=west;flipH=0;" vertex="1" parent="1">
          <mxGeometry x="390" y="180" width="17" height="19" as="geometry" />
        </mxCell>
        <mxCell id="zETWnQQV9wwEFKSfop4r-110" style="edgeStyle=orthogonalEdgeStyle;rounded=0;orthogonalLoop=1;jettySize=auto;html=1;exitX=0;exitY=0.5;exitDx=0;exitDy=0;entryX=1;entryY=0.5;entryDx=0;entryDy=0;" edge="1" parent="1">
          <mxGeometry relative="1" as="geometry">
            <mxPoint x="487.0000000000314" y="190.5" as="sourcePoint" />
            <mxPoint x="529.9999999999945" y="190.5" as="targetPoint" />
          </mxGeometry>
        </mxCell>
        <mxCell id="zETWnQQV9wwEFKSfop4r-111" value="" style="ellipse;whiteSpace=wrap;html=1;aspect=fixed;fontSize=12;fillColor=#f5f5f5;strokeColor=#666666;fontColor=#333333;direction=west;flipH=0;" vertex="1" parent="1">
          <mxGeometry x="470" y="180" width="17" height="19" as="geometry" />
        </mxCell>
        <mxCell id="zETWnQQV9wwEFKSfop4r-112" style="edgeStyle=orthogonalEdgeStyle;rounded=0;orthogonalLoop=1;jettySize=auto;html=1;entryX=1;entryY=0.5;entryDx=0;entryDy=0;" edge="1" parent="1">
          <mxGeometry relative="1" as="geometry">
            <mxPoint x="896.9999999999998" y="190.5" as="sourcePoint" />
            <mxPoint x="959.9999999999945" y="190.5" as="targetPoint" />
          </mxGeometry>
        </mxCell>
        <mxCell id="zETWnQQV9wwEFKSfop4r-113" value="" style="ellipse;whiteSpace=wrap;html=1;aspect=fixed;fontSize=12;fillColor=#f5f5f5;strokeColor=#666666;fontColor=#333333;direction=west;flipH=0;" vertex="1" parent="1">
          <mxGeometry x="790" y="180" width="17" height="19" as="geometry" />
        </mxCell>
        <mxCell id="zETWnQQV9wwEFKSfop4r-114" value="" style="ellipse;whiteSpace=wrap;html=1;aspect=fixed;fontSize=12;fillColor=#f5f5f5;strokeColor=#666666;fontColor=#333333;direction=west;flipH=0;" vertex="1" parent="1">
          <mxGeometry x="960" y="180" width="17" height="19" as="geometry" />
        </mxCell>
        <mxCell id="zETWnQQV9wwEFKSfop4r-115" style="edgeStyle=orthogonalEdgeStyle;rounded=0;orthogonalLoop=1;jettySize=auto;html=1;entryX=1;entryY=0.5;entryDx=0;entryDy=0;" edge="1" parent="1">
          <mxGeometry relative="1" as="geometry">
            <mxPoint x="686.9999999999998" y="190.5" as="sourcePoint" />
            <mxPoint x="789.9999999999684" y="190.5" as="targetPoint" />
          </mxGeometry>
        </mxCell>
        <mxCell id="zETWnQQV9wwEFKSfop4r-116" value="" style="ellipse;whiteSpace=wrap;html=1;aspect=fixed;fontSize=12;fillColor=#f5f5f5;strokeColor=#666666;fontColor=#333333;direction=west;flipH=0;" vertex="1" parent="1">
          <mxGeometry x="530" y="180" width="17" height="19" as="geometry" />
        </mxCell>
        <mxCell id="zETWnQQV9wwEFKSfop4r-117" value="" style="edgeStyle=orthogonalEdgeStyle;rounded=0;orthogonalLoop=1;jettySize=auto;html=1;entryX=1;entryY=0.5;entryDx=0;entryDy=0;" edge="1" parent="1">
          <mxGeometry relative="1" as="geometry">
            <mxPoint x="806.9999999999998" y="190.5" as="sourcePoint" />
            <mxPoint x="879.9999999999684" y="190.5" as="targetPoint" />
          </mxGeometry>
        </mxCell>
        <mxCell id="zETWnQQV9wwEFKSfop4r-118" value="" style="ellipse;whiteSpace=wrap;html=1;aspect=fixed;fontSize=12;fillColor=#f5f5f5;strokeColor=#666666;fontColor=#333333;direction=west;flipH=0;" vertex="1" parent="1">
          <mxGeometry x="880" y="180" width="17" height="19" as="geometry" />
        </mxCell>
        <mxCell id="zETWnQQV9wwEFKSfop4r-119" style="edgeStyle=orthogonalEdgeStyle;rounded=0;orthogonalLoop=1;jettySize=auto;html=1;exitX=0;exitY=0.5;exitDx=0;exitDy=0;entryX=1;entryY=0.5;entryDx=0;entryDy=0;" edge="1" parent="1">
          <mxGeometry relative="1" as="geometry">
            <mxPoint x="207.000000000005" y="190.5" as="sourcePoint" />
            <mxPoint x="239.99999999998158" y="190.5" as="targetPoint" />
          </mxGeometry>
        </mxCell>
        <mxCell id="zETWnQQV9wwEFKSfop4r-120" value="" style="edgeStyle=orthogonalEdgeStyle;rounded=0;orthogonalLoop=1;jettySize=auto;html=1;" edge="1" parent="1">
          <mxGeometry relative="1" as="geometry">
            <mxPoint x="256.9999999999998" y="190.5" as="sourcePoint" />
            <mxPoint x="340" y="190.5" as="targetPoint" />
          </mxGeometry>
        </mxCell>
        <mxCell id="zETWnQQV9wwEFKSfop4r-121" value="" style="ellipse;whiteSpace=wrap;html=1;aspect=fixed;fontSize=12;fillColor=#f5f5f5;fontColor=#333333;strokeColor=#666666;direction=west;flipH=0;" vertex="1" parent="1">
          <mxGeometry x="190" y="180" width="17" height="19" as="geometry" />
        </mxCell>
        <mxCell id="zETWnQQV9wwEFKSfop4r-122" value="" style="edgeStyle=orthogonalEdgeStyle;rounded=0;orthogonalLoop=1;jettySize=auto;html=1;" edge="1" parent="1">
          <mxGeometry relative="1" as="geometry">
            <mxPoint x="256.9999999999998" y="190.5" as="sourcePoint" />
            <mxPoint x="340" y="190.5" as="targetPoint" />
          </mxGeometry>
        </mxCell>
        <mxCell id="zETWnQQV9wwEFKSfop4r-123" value="" style="edgeStyle=orthogonalEdgeStyle;rounded=0;orthogonalLoop=1;jettySize=auto;html=1;" edge="1" parent="1">
          <mxGeometry relative="1" as="geometry">
            <mxPoint x="256.9999999999998" y="190.5" as="sourcePoint" />
            <mxPoint x="340" y="190.5" as="targetPoint" />
          </mxGeometry>
        </mxCell>
        <mxCell id="zETWnQQV9wwEFKSfop4r-124" value="" style="edgeStyle=orthogonalEdgeStyle;rounded=0;orthogonalLoop=1;jettySize=auto;html=1;entryX=1;entryY=0.5;entryDx=0;entryDy=0;" edge="1" parent="1">
          <mxGeometry relative="1" as="geometry">
            <mxPoint x="546.9999999999998" y="190.5" as="sourcePoint" />
            <mxPoint x="670.0000000000209" y="190.5" as="targetPoint" />
          </mxGeometry>
        </mxCell>
        <mxCell id="zETWnQQV9wwEFKSfop4r-125" value="" style="ellipse;whiteSpace=wrap;html=1;aspect=fixed;fontSize=12;fillColor=#f5f5f5;strokeColor=#666666;fontColor=#333333;direction=west;flipH=0;" vertex="1" parent="1">
          <mxGeometry x="670" y="180" width="17" height="19" as="geometry" />
        </mxCell>
        <mxCell id="zETWnQQV9wwEFKSfop4r-126" style="edgeStyle=orthogonalEdgeStyle;rounded=0;orthogonalLoop=1;jettySize=auto;html=1;exitX=0;exitY=0.5;exitDx=0;exitDy=0;entryX=1;entryY=0.5;entryDx=0;entryDy=0;" edge="1" parent="1">
          <mxGeometry relative="1" as="geometry">
            <mxPoint x="356.9999999999918" y="190.5" as="sourcePoint" />
            <mxPoint x="389.99999999998136" y="190.5" as="targetPoint" />
          </mxGeometry>
        </mxCell>
        <mxCell id="zETWnQQV9wwEFKSfop4r-127" value="" style="ellipse;whiteSpace=wrap;html=1;aspect=fixed;fontSize=12;fillColor=#f5f5f5;strokeColor=#666666;fontColor=#333333;direction=west;flipH=0;" vertex="1" parent="1">
          <mxGeometry x="340" y="180" width="17" height="19" as="geometry" />
        </mxCell>
        <mxCell id="zETWnQQV9wwEFKSfop4r-128" value="" style="edgeStyle=orthogonalEdgeStyle;rounded=0;orthogonalLoop=1;jettySize=auto;html=1;" edge="1" parent="1">
          <mxGeometry relative="1" as="geometry">
            <mxPoint x="206.99999999999977" y="190.5" as="sourcePoint" />
            <mxPoint x="240" y="190.5" as="targetPoint" />
          </mxGeometry>
        </mxCell>
        <mxCell id="zETWnQQV9wwEFKSfop4r-129" value="" style="ellipse;whiteSpace=wrap;html=1;aspect=fixed;fontSize=12;fillColor=#f5f5f5;strokeColor=#666666;fontColor=#333333;direction=west;flipH=0;" vertex="1" parent="1">
          <mxGeometry x="240" y="180" width="17" height="19" as="geometry" />
        </mxCell>
        <mxCell id="zETWnQQV9wwEFKSfop4r-131" value="Feature team 2" style="text;html=1;strokeColor=#9673a6;fillColor=#e1d5e7;align=center;verticalAlign=middle;whiteSpace=wrap;rounded=0;direction=east;" vertex="1" parent="1">
          <mxGeometry x="40" y="240" width="88" height="21" as="geometry" />
        </mxCell>
        <mxCell id="zETWnQQV9wwEFKSfop4r-133" value="" style="ellipse;whiteSpace=wrap;html=1;aspect=fixed;fontSize=12;fillColor=#e1d5e7;strokeColor=#9673a6;direction=west;flipH=0;" vertex="1" parent="1">
          <mxGeometry x="401" y="241" width="17" height="19" as="geometry" />
        </mxCell>
        <mxCell id="zETWnQQV9wwEFKSfop4r-135" value="" style="ellipse;whiteSpace=wrap;html=1;aspect=fixed;fontSize=12;fillColor=#e1d5e7;strokeColor=#9673a6;direction=west;flipH=0;" vertex="1" parent="1">
          <mxGeometry x="451" y="241" width="17" height="19" as="geometry" />
        </mxCell>
        <mxCell id="zETWnQQV9wwEFKSfop4r-137" value="" style="ellipse;whiteSpace=wrap;html=1;aspect=fixed;fontSize=12;fillColor=#e1d5e7;strokeColor=#9673a6;direction=west;flipH=0;" vertex="1" parent="1">
          <mxGeometry x="701" y="241" width="17" height="19" as="geometry" />
        </mxCell>
        <mxCell id="zETWnQQV9wwEFKSfop4r-138" value="" style="ellipse;whiteSpace=wrap;html=1;aspect=fixed;fontSize=12;fillColor=#e1d5e7;strokeColor=#9673a6;direction=west;flipH=0;" vertex="1" parent="1">
          <mxGeometry x="821" y="241" width="17" height="19" as="geometry" />
        </mxCell>
        <mxCell id="zETWnQQV9wwEFKSfop4r-140" value="" style="ellipse;whiteSpace=wrap;html=1;aspect=fixed;fontSize=12;fillColor=#e1d5e7;strokeColor=#9673a6;direction=west;flipH=0;" vertex="1" parent="1">
          <mxGeometry x="511" y="241" width="17" height="19" as="geometry" />
        </mxCell>
        <mxCell id="zETWnQQV9wwEFKSfop4r-142" value="" style="ellipse;whiteSpace=wrap;html=1;aspect=fixed;fontSize=12;fillColor=#e1d5e7;strokeColor=#9673a6;direction=west;flipH=0;" vertex="1" parent="1">
          <mxGeometry x="751" y="241" width="17" height="19" as="geometry" />
        </mxCell>
        <mxCell id="zETWnQQV9wwEFKSfop4r-143" value="" style="endArrow=none;dashed=1;html=1;rounded=0;entryX=1;entryY=0.5;entryDx=0;entryDy=0;" edge="1" parent="1" target="FDRWWzNf12pBNZbJ33nD-349">
          <mxGeometry width="50" height="50" relative="1" as="geometry">
            <mxPoint x="128" y="70" as="sourcePoint" />
            <mxPoint x="178" y="20" as="targetPoint" />
          </mxGeometry>
        </mxCell>
        <mxCell id="zETWnQQV9wwEFKSfop4r-146" value="" style="endArrow=none;dashed=1;html=1;rounded=0;exitX=0;exitY=0.5;exitDx=0;exitDy=0;" edge="1" parent="1" source="FDRWWzNf12pBNZbJ33nD-349">
          <mxGeometry width="50" height="50" relative="1" as="geometry">
            <mxPoint x="451" y="67.87" as="sourcePoint" />
            <mxPoint x="964" y="67.87" as="targetPoint" />
          </mxGeometry>
        </mxCell>
        <mxCell id="zETWnQQV9wwEFKSfop4r-147" value="" style="endArrow=none;dashed=1;html=1;rounded=0;exitX=1;exitY=0.5;exitDx=0;exitDy=0;entryX=1;entryY=0.5;entryDx=0;entryDy=0;" edge="1" parent="1" source="42" target="FDRWWzNf12pBNZbJ33nD-332">
          <mxGeometry width="50" height="50" relative="1" as="geometry">
            <mxPoint x="480" y="160" as="sourcePoint" />
            <mxPoint x="530" y="110" as="targetPoint" />
          </mxGeometry>
        </mxCell>
        <mxCell id="zETWnQQV9wwEFKSfop4r-148" value="" style="endArrow=none;dashed=1;html=1;rounded=0;entryX=1;entryY=0.5;entryDx=0;entryDy=0;exitX=0;exitY=0.5;exitDx=0;exitDy=0;" edge="1" parent="1" source="FDRWWzNf12pBNZbJ33nD-332" target="FDRWWzNf12pBNZbJ33nD-331">
          <mxGeometry width="50" height="50" relative="1" as="geometry">
            <mxPoint x="480" y="160" as="sourcePoint" />
            <mxPoint x="530" y="110" as="targetPoint" />
          </mxGeometry>
        </mxCell>
        <mxCell id="zETWnQQV9wwEFKSfop4r-149" value="" style="endArrow=none;dashed=1;html=1;rounded=0;entryX=1;entryY=0.5;entryDx=0;entryDy=0;exitX=0;exitY=0.5;exitDx=0;exitDy=0;" edge="1" parent="1" source="FDRWWzNf12pBNZbJ33nD-331" target="FDRWWzNf12pBNZbJ33nD-333">
          <mxGeometry width="50" height="50" relative="1" as="geometry">
            <mxPoint x="480" y="160" as="sourcePoint" />
            <mxPoint x="530" y="110" as="targetPoint" />
          </mxGeometry>
        </mxCell>
        <mxCell id="zETWnQQV9wwEFKSfop4r-150" value="" style="endArrow=none;dashed=1;html=1;rounded=0;entryX=0;entryY=0.5;entryDx=0;entryDy=0;exitX=1;exitY=0.5;exitDx=0;exitDy=0;" edge="1" parent="1" source="FDRWWzNf12pBNZbJ33nD-334" target="FDRWWzNf12pBNZbJ33nD-333">
          <mxGeometry width="50" height="50" relative="1" as="geometry">
            <mxPoint x="678" y="130" as="sourcePoint" />
            <mxPoint x="721" y="130" as="targetPoint" />
          </mxGeometry>
        </mxCell>
        <mxCell id="zETWnQQV9wwEFKSfop4r-151" value="" style="endArrow=none;dashed=1;html=1;rounded=0;entryX=0;entryY=0.5;entryDx=0;entryDy=0;exitX=1;exitY=0.5;exitDx=0;exitDy=0;" edge="1" parent="1" source="FDRWWzNf12pBNZbJ33nD-335" target="FDRWWzNf12pBNZbJ33nD-334">
          <mxGeometry width="50" height="50" relative="1" as="geometry">
            <mxPoint x="480" y="160" as="sourcePoint" />
            <mxPoint x="530" y="110" as="targetPoint" />
          </mxGeometry>
        </mxCell>
        <mxCell id="zETWnQQV9wwEFKSfop4r-153" value="" style="endArrow=none;dashed=1;html=1;rounded=0;exitX=1;exitY=0.5;exitDx=0;exitDy=0;entryX=1;entryY=0.5;entryDx=0;entryDy=0;" edge="1" parent="1" source="zETWnQQV9wwEFKSfop4r-131" target="zETWnQQV9wwEFKSfop4r-133">
          <mxGeometry width="50" height="50" relative="1" as="geometry">
            <mxPoint x="390" y="160" as="sourcePoint" />
            <mxPoint x="440" y="110" as="targetPoint" />
          </mxGeometry>
        </mxCell>
        <mxCell id="zETWnQQV9wwEFKSfop4r-154" value="" style="endArrow=none;dashed=1;html=1;rounded=0;exitX=1;exitY=0.5;exitDx=0;exitDy=0;entryX=1;entryY=0.5;entryDx=0;entryDy=0;" edge="1" parent="1" source="85" target="FDRWWzNf12pBNZbJ33nD-182">
          <mxGeometry width="50" height="50" relative="1" as="geometry">
            <mxPoint x="147" y="281" as="sourcePoint" />
            <mxPoint x="420" y="281" as="targetPoint" />
          </mxGeometry>
        </mxCell>
        <mxCell id="zETWnQQV9wwEFKSfop4r-155" value="" style="endArrow=none;dashed=1;html=1;rounded=0;entryX=1;entryY=0.5;entryDx=0;entryDy=0;exitX=0;exitY=0.5;exitDx=0;exitDy=0;" edge="1" parent="1" source="zETWnQQV9wwEFKSfop4r-133" target="zETWnQQV9wwEFKSfop4r-135">
          <mxGeometry width="50" height="50" relative="1" as="geometry">
            <mxPoint x="678" y="130" as="sourcePoint" />
            <mxPoint x="721" y="130" as="targetPoint" />
          </mxGeometry>
        </mxCell>
        <mxCell id="zETWnQQV9wwEFKSfop4r-156" value="" style="endArrow=none;dashed=1;html=1;rounded=0;entryX=1;entryY=0.5;entryDx=0;entryDy=0;exitX=0;exitY=0.5;exitDx=0;exitDy=0;" edge="1" parent="1" source="FDRWWzNf12pBNZbJ33nD-182" target="FDRWWzNf12pBNZbJ33nD-183">
          <mxGeometry width="50" height="50" relative="1" as="geometry">
            <mxPoint x="428" y="261" as="sourcePoint" />
            <mxPoint x="461" y="261" as="targetPoint" />
          </mxGeometry>
        </mxCell>
        <mxCell id="zETWnQQV9wwEFKSfop4r-157" value="" style="endArrow=none;dashed=1;html=1;rounded=0;exitX=0;exitY=0.5;exitDx=0;exitDy=0;entryX=1;entryY=0.5;entryDx=0;entryDy=0;" edge="1" parent="1" source="FDRWWzNf12pBNZbJ33nD-183" target="FDRWWzNf12pBNZbJ33nD-185">
          <mxGeometry width="50" height="50" relative="1" as="geometry">
            <mxPoint x="450" y="310" as="sourcePoint" />
            <mxPoint x="630" y="290" as="targetPoint" />
          </mxGeometry>
        </mxCell>
        <mxCell id="zETWnQQV9wwEFKSfop4r-158" value="" style="endArrow=none;dashed=1;html=1;rounded=0;exitX=0;exitY=0.5;exitDx=0;exitDy=0;entryX=1;entryY=0.5;entryDx=0;entryDy=0;" edge="1" parent="1" source="FDRWWzNf12pBNZbJ33nD-185" target="FDRWWzNf12pBNZbJ33nD-186">
          <mxGeometry width="50" height="50" relative="1" as="geometry">
            <mxPoint x="658" y="289.88" as="sourcePoint" />
            <mxPoint x="850" y="290" as="targetPoint" />
          </mxGeometry>
        </mxCell>
        <mxCell id="zETWnQQV9wwEFKSfop4r-159" value="" style="endArrow=none;dashed=1;html=1;rounded=0;entryX=1;entryY=0.5;entryDx=0;entryDy=0;exitX=0;exitY=0.5;exitDx=0;exitDy=0;" edge="1" parent="1" source="zETWnQQV9wwEFKSfop4r-140" target="zETWnQQV9wwEFKSfop4r-137">
          <mxGeometry width="50" height="50" relative="1" as="geometry">
            <mxPoint x="547" y="249.87" as="sourcePoint" />
            <mxPoint x="615" y="249.87" as="targetPoint" />
          </mxGeometry>
        </mxCell>
        <mxCell id="zETWnQQV9wwEFKSfop4r-160" value="" style="endArrow=none;dashed=1;html=1;rounded=0;entryX=1;entryY=0.5;entryDx=0;entryDy=0;exitX=0;exitY=0.5;exitDx=0;exitDy=0;" edge="1" parent="1" source="zETWnQQV9wwEFKSfop4r-137" target="zETWnQQV9wwEFKSfop4r-142">
          <mxGeometry width="50" height="50" relative="1" as="geometry">
            <mxPoint x="678" y="130" as="sourcePoint" />
            <mxPoint x="721" y="130" as="targetPoint" />
          </mxGeometry>
        </mxCell>
        <mxCell id="zETWnQQV9wwEFKSfop4r-161" value="" style="endArrow=none;dashed=1;html=1;rounded=0;entryX=0;entryY=0.5;entryDx=0;entryDy=0;exitX=1;exitY=0.5;exitDx=0;exitDy=0;" edge="1" parent="1" source="zETWnQQV9wwEFKSfop4r-138" target="zETWnQQV9wwEFKSfop4r-142">
          <mxGeometry width="50" height="50" relative="1" as="geometry">
            <mxPoint x="771" y="130" as="sourcePoint" />
            <mxPoint x="738" y="130" as="targetPoint" />
          </mxGeometry>
        </mxCell>
        <mxCell id="zETWnQQV9wwEFKSfop4r-162" value="" style="endArrow=none;dashed=1;html=1;rounded=0;entryX=0;entryY=0.5;entryDx=0;entryDy=0;exitX=1;exitY=0.5;exitDx=0;exitDy=0;" edge="1" parent="1" source="zETWnQQV9wwEFKSfop4r-140" target="zETWnQQV9wwEFKSfop4r-135">
          <mxGeometry width="50" height="50" relative="1" as="geometry">
            <mxPoint x="781" y="140" as="sourcePoint" />
            <mxPoint x="748" y="140" as="targetPoint" />
          </mxGeometry>
        </mxCell>
        <mxCell id="zETWnQQV9wwEFKSfop4r-165" value="" style="endArrow=classic;html=1;rounded=0;exitX=0;exitY=1;exitDx=0;exitDy=0;entryX=0.5;entryY=0;entryDx=0;entryDy=0;" edge="1" parent="1" source="FDRWWzNf12pBNZbJ33nD-186" target="zETWnQQV9wwEFKSfop4r-118">
          <mxGeometry width="50" height="50" relative="1" as="geometry">
            <mxPoint x="690" y="180" as="sourcePoint" />
            <mxPoint x="740" y="130" as="targetPoint" />
          </mxGeometry>
        </mxCell>
        <mxCell id="zETWnQQV9wwEFKSfop4r-166" value="" style="endArrow=classic;html=1;rounded=0;exitX=0.5;exitY=1;exitDx=0;exitDy=0;entryX=1;entryY=0;entryDx=0;entryDy=0;" edge="1" parent="1" source="zETWnQQV9wwEFKSfop4r-138" target="zETWnQQV9wwEFKSfop4r-118">
          <mxGeometry width="50" height="50" relative="1" as="geometry">
            <mxPoint x="690" y="180" as="sourcePoint" />
            <mxPoint x="740" y="130" as="targetPoint" />
          </mxGeometry>
        </mxCell>
        <mxCell id="zETWnQQV9wwEFKSfop4r-167" value="" style="endArrow=classic;html=1;rounded=0;entryX=0.5;entryY=1;entryDx=0;entryDy=0;exitX=0.5;exitY=0;exitDx=0;exitDy=0;" edge="1" parent="1" source="zETWnQQV9wwEFKSfop4r-125" target="zETWnQQV9wwEFKSfop4r-137">
          <mxGeometry width="50" height="50" relative="1" as="geometry">
            <mxPoint x="620" y="170" as="sourcePoint" />
            <mxPoint x="670" y="120" as="targetPoint" />
          </mxGeometry>
        </mxCell>
        <mxCell id="zETWnQQV9wwEFKSfop4r-168" value="" style="endArrow=classic;html=1;rounded=0;exitX=0.5;exitY=1;exitDx=0;exitDy=0;entryX=0.5;entryY=0;entryDx=0;entryDy=0;" edge="1" parent="1" source="zETWnQQV9wwEFKSfop4r-140" target="zETWnQQV9wwEFKSfop4r-116">
          <mxGeometry width="50" height="50" relative="1" as="geometry">
            <mxPoint x="620" y="170" as="sourcePoint" />
            <mxPoint x="670" y="120" as="targetPoint" />
          </mxGeometry>
        </mxCell>
        <mxCell id="zETWnQQV9wwEFKSfop4r-169" value="" style="endArrow=classic;html=1;rounded=0;entryX=0.5;entryY=1;entryDx=0;entryDy=0;exitX=0.5;exitY=0;exitDx=0;exitDy=0;" edge="1" parent="1" source="zETWnQQV9wwEFKSfop4r-127" target="FDRWWzNf12pBNZbJ33nD-182">
          <mxGeometry width="50" height="50" relative="1" as="geometry">
            <mxPoint x="510" y="170" as="sourcePoint" />
            <mxPoint x="560" y="120" as="targetPoint" />
          </mxGeometry>
        </mxCell>
        <mxCell id="zETWnQQV9wwEFKSfop4r-172" value="" style="endArrow=classic;html=1;rounded=0;exitX=0;exitY=0;exitDx=0;exitDy=0;entryX=1;entryY=1;entryDx=0;entryDy=0;" edge="1" parent="1" source="zETWnQQV9wwEFKSfop4r-127" target="zETWnQQV9wwEFKSfop4r-133">
          <mxGeometry width="50" height="50" relative="1" as="geometry">
            <mxPoint x="510" y="170" as="sourcePoint" />
            <mxPoint x="560" y="120" as="targetPoint" />
          </mxGeometry>
        </mxCell>
        <mxCell id="zETWnQQV9wwEFKSfop4r-173" value="" style="endArrow=classic;html=1;rounded=0;exitX=0;exitY=1;exitDx=0;exitDy=0;entryX=0.5;entryY=0;entryDx=0;entryDy=0;" edge="1" parent="1" source="zETWnQQV9wwEFKSfop4r-116" target="FDRWWzNf12pBNZbJ33nD-332">
          <mxGeometry width="50" height="50" relative="1" as="geometry">
            <mxPoint x="710" y="170" as="sourcePoint" />
            <mxPoint x="760" y="120" as="targetPoint" />
          </mxGeometry>
        </mxCell>
        <mxCell id="zETWnQQV9wwEFKSfop4r-175" value="" style="endArrow=classic;html=1;rounded=0;entryX=0.5;entryY=1;entryDx=0;entryDy=0;" edge="1" parent="1" target="zETWnQQV9wwEFKSfop4r-125">
          <mxGeometry width="50" height="50" relative="1" as="geometry">
            <mxPoint x="660" y="130" as="sourcePoint" />
            <mxPoint x="584" y="139" as="targetPoint" />
          </mxGeometry>
        </mxCell>
        <mxCell id="zETWnQQV9wwEFKSfop4r-176" value="" style="endArrow=classic;html=1;rounded=0;entryX=1;entryY=1;entryDx=0;entryDy=0;exitX=0.5;exitY=0;exitDx=0;exitDy=0;" edge="1" parent="1" source="FDRWWzNf12pBNZbJ33nD-334" target="zETWnQQV9wwEFKSfop4r-113">
          <mxGeometry width="50" height="50" relative="1" as="geometry">
            <mxPoint x="670" y="140" as="sourcePoint" />
            <mxPoint x="689" y="190" as="targetPoint" />
          </mxGeometry>
        </mxCell>
        <mxCell id="zETWnQQV9wwEFKSfop4r-177" value="" style="endArrow=classic;html=1;rounded=0;entryX=0.5;entryY=1;entryDx=0;entryDy=0;exitX=0;exitY=0;exitDx=0;exitDy=0;" edge="1" parent="1" source="FDRWWzNf12pBNZbJ33nD-335" target="zETWnQQV9wwEFKSfop4r-114">
          <mxGeometry width="50" height="50" relative="1" as="geometry">
            <mxPoint x="779" y="139" as="sourcePoint" />
            <mxPoint x="803" y="193" as="targetPoint" />
          </mxGeometry>
        </mxCell>
        <mxCell id="zETWnQQV9wwEFKSfop4r-178" value="" style="endArrow=classic;html=1;rounded=0;exitX=0.5;exitY=1;exitDx=0;exitDy=0;entryX=1;entryY=0;entryDx=0;entryDy=0;" edge="1" parent="1" source="zETWnQQV9wwEFKSfop4r-118" target="FDRWWzNf12pBNZbJ33nD-335">
          <mxGeometry width="50" height="50" relative="1" as="geometry">
            <mxPoint x="554" y="193" as="sourcePoint" />
            <mxPoint x="584" y="139" as="targetPoint" />
          </mxGeometry>
        </mxCell>
        <mxCell id="zETWnQQV9wwEFKSfop4r-179" value="" style="endArrow=classic;html=1;rounded=0;entryX=0.5;entryY=0;entryDx=0;entryDy=0;exitX=0.5;exitY=1;exitDx=0;exitDy=0;" edge="1" parent="1" source="FDRWWzNf12pBNZbJ33nD-334" target="FDRWWzNf12pBNZbJ33nD-358">
          <mxGeometry width="50" height="50" relative="1" as="geometry">
            <mxPoint x="712.5" y="181" as="sourcePoint" />
            <mxPoint x="820" y="40" as="targetPoint" />
          </mxGeometry>
        </mxCell>
        <mxCell id="zETWnQQV9wwEFKSfop4r-180" value="" style="endArrow=classic;html=1;rounded=0;entryX=0.5;entryY=0;entryDx=0;entryDy=0;exitX=0.5;exitY=1;exitDx=0;exitDy=0;" edge="1" parent="1" source="FDRWWzNf12pBNZbJ33nD-335" target="FDRWWzNf12pBNZbJ33nD-360">
          <mxGeometry width="50" height="50" relative="1" as="geometry">
            <mxPoint x="779" y="120" as="sourcePoint" />
            <mxPoint x="819" y="30" as="targetPoint" />
          </mxGeometry>
        </mxCell>
        <mxCell id="zETWnQQV9wwEFKSfop4r-181" value="" style="endArrow=classic;html=1;rounded=0;entryX=0.5;entryY=1;entryDx=0;entryDy=0;exitX=0.5;exitY=0;exitDx=0;exitDy=0;" edge="1" parent="1" source="FDRWWzNf12pBNZbJ33nD-349" target="zETWnQQV9wwEFKSfop4r-111">
          <mxGeometry width="50" height="50" relative="1" as="geometry">
            <mxPoint x="350" y="170" as="sourcePoint" />
            <mxPoint x="400" y="120" as="targetPoint" />
          </mxGeometry>
        </mxCell>
        <mxCell id="zETWnQQV9wwEFKSfop4r-182" value="" style="endArrow=classic;html=1;rounded=0;exitX=0.5;exitY=1;exitDx=0;exitDy=0;entryX=0.5;entryY=1;entryDx=0;entryDy=0;" edge="1" parent="1" source="FDRWWzNf12pBNZbJ33nD-354" target="zETWnQQV9wwEFKSfop4r-121">
          <mxGeometry width="50" height="50" relative="1" as="geometry">
            <mxPoint x="350" y="170" as="sourcePoint" />
            <mxPoint x="400" y="120" as="targetPoint" />
          </mxGeometry>
        </mxCell>
        <mxCell id="zETWnQQV9wwEFKSfop4r-183" value="" style="endArrow=classic;html=1;rounded=0;exitX=1;exitY=1;exitDx=0;exitDy=0;entryX=1;entryY=0.5;entryDx=0;entryDy=0;" edge="1" parent="1" source="FDRWWzNf12pBNZbJ33nD-354" target="FDRWWzNf12pBNZbJ33nD-349">
          <mxGeometry width="50" height="50" relative="1" as="geometry">
            <mxPoint x="350" y="170" as="sourcePoint" />
            <mxPoint x="400" y="120" as="targetPoint" />
          </mxGeometry>
        </mxCell>
        <mxCell id="zETWnQQV9wwEFKSfop4r-184" value="" style="endArrow=classic;html=1;rounded=0;entryX=0.5;entryY=0;entryDx=0;entryDy=0;exitX=0.5;exitY=1;exitDx=0;exitDy=0;" edge="1" parent="1" source="FDRWWzNf12pBNZbJ33nD-349" target="FDRWWzNf12pBNZbJ33nD-356">
          <mxGeometry width="50" height="50" relative="1" as="geometry">
            <mxPoint x="450" y="64" as="sourcePoint" />
            <mxPoint x="487" y="10" as="targetPoint" />
          </mxGeometry>
        </mxCell>
        <mxCell id="zETWnQQV9wwEFKSfop4r-185" value="Tag&lt;br&gt;1.0" style="shape=callout;whiteSpace=wrap;html=1;perimeter=calloutPerimeter;direction=east;fillColor=#d5e8d4;strokeColor=#82b366;" vertex="1" parent="1">
          <mxGeometry x="766" y="-69" width="87" height="69" as="geometry" />
        </mxCell>
        <mxCell id="zETWnQQV9wwEFKSfop4r-186" value="Tag&lt;br&gt;0.2" style="shape=callout;whiteSpace=wrap;html=1;perimeter=calloutPerimeter;direction=east;fillColor=#d5e8d4;strokeColor=#82b366;" vertex="1" parent="1">
          <mxGeometry x="415" y="-69" width="87" height="69" as="geometry" />
        </mxCell>
        <mxCell id="zETWnQQV9wwEFKSfop4r-187" value="Tag&lt;br&gt;0.1" style="shape=callout;whiteSpace=wrap;html=1;perimeter=calloutPerimeter;direction=east;fillColor=#d5e8d4;strokeColor=#82b366;" vertex="1" parent="1">
          <mxGeometry x="133" y="-68" width="87" height="69" as="geometry" />
        </mxCell>
        <mxCell id="zETWnQQV9wwEFKSfop4r-191" value="&lt;font style=&quot;font-size: 10px;&quot;&gt;Incorporate bugfix in develop&lt;br&gt;&lt;/font&gt;" style="shape=callout;whiteSpace=wrap;html=1;perimeter=calloutPerimeter;direction=south;fillColor=#f5f5f5;strokeColor=#666666;fontColor=#333333;" vertex="1" parent="1">
          <mxGeometry x="159" y="530" width="148" height="31" as="geometry" />
        </mxCell>
        <mxCell id="zETWnQQV9wwEFKSfop4r-193" value="Severe bug fixed for production hotfix 2.0" style="rounded=1;whiteSpace=wrap;html=1;fillColor=#f8cecc;strokeColor=#b85450;" vertex="1" parent="1">
          <mxGeometry x="560" y="-69" width="120" height="50" as="geometry" />
        </mxCell>
        <mxCell id="zETWnQQV9wwEFKSfop4r-203" value="" style="endArrow=none;dashed=1;html=1;dashPattern=1 3;strokeWidth=2;rounded=0;entryX=0;entryY=1;entryDx=0;entryDy=0;exitX=0;exitY=1;exitDx=0;exitDy=0;" edge="1" parent="1" source="FDRWWzNf12pBNZbJ33nD-332" target="zETWnQQV9wwEFKSfop4r-207">
          <mxGeometry width="50" height="50" relative="1" as="geometry">
            <mxPoint x="770" y="150" as="sourcePoint" />
            <mxPoint x="1000" y="51" as="targetPoint" />
          </mxGeometry>
        </mxCell>
        <mxCell id="zETWnQQV9wwEFKSfop4r-204" value="" style="endArrow=none;dashed=1;html=1;dashPattern=1 3;strokeWidth=2;rounded=0;entryX=0;entryY=1;entryDx=0;entryDy=0;exitX=0;exitY=1;exitDx=0;exitDy=0;" edge="1" parent="1" source="FDRWWzNf12pBNZbJ33nD-349" target="zETWnQQV9wwEFKSfop4r-193">
          <mxGeometry width="50" height="50" relative="1" as="geometry">
            <mxPoint x="590" y="123" as="sourcePoint" />
            <mxPoint x="1010" y="40" as="targetPoint" />
          </mxGeometry>
        </mxCell>
        <mxCell id="zETWnQQV9wwEFKSfop4r-206" value="" style="endArrow=none;dashed=1;html=1;dashPattern=1 3;strokeWidth=2;rounded=0;entryX=0;entryY=0.5;entryDx=0;entryDy=0;exitX=0.5;exitY=0;exitDx=0;exitDy=0;" edge="1" parent="1" source="FDRWWzNf12pBNZbJ33nD-333" target="zETWnQQV9wwEFKSfop4r-208">
          <mxGeometry width="50" height="50" relative="1" as="geometry">
            <mxPoint x="830" y="180" as="sourcePoint" />
            <mxPoint x="1010" y="144" as="targetPoint" />
          </mxGeometry>
        </mxCell>
        <mxCell id="zETWnQQV9wwEFKSfop4r-207" value="Start of release branch for 1.0" style="rounded=1;whiteSpace=wrap;html=1;fillColor=#ffe6cc;strokeColor=#d79b00;" vertex="1" parent="1">
          <mxGeometry x="990" y="-19" width="120" height="60" as="geometry" />
        </mxCell>
        <mxCell id="zETWnQQV9wwEFKSfop4r-208" value="Start of release branch for 1.0" style="rounded=1;whiteSpace=wrap;html=1;fillColor=#ffe6cc;strokeColor=#d79b00;" vertex="1" parent="1">
          <mxGeometry x="1000" y="119" width="120" height="60" as="geometry" />
        </mxCell>
        <mxCell id="zETWnQQV9wwEFKSfop4r-209" value="Tag&lt;br&gt;0.1" style="shape=callout;whiteSpace=wrap;html=1;perimeter=calloutPerimeter;direction=east;" vertex="1" parent="1">
          <mxGeometry x="240" y="380" width="87" height="69" as="geometry" />
        </mxCell>
      </root>
    </mxGraphModel>
  </diagram>
</mxfile>
